<svg width="70" height="88" viewBox="0 0 70 88" fill="none" xmlns="http://www.w3.org/2000/svg">
    <g id="icon-footer-emblem" clip-path="url(#clip0)">
      <path fill-rule="evenodd" clip-rule="evenodd" d="M39.4711 0.0915127C39.4959 17.1158 52.3026 32.4795 69.5874 31.3258C69.5886 31.3258 69.5898 31.3249 69.5898 31.3233V0.0882568H39.4747C39.4731 0.0882568 39.4711 0.0898847 39.4711 0.0915127Z" fill="black"></path>
      <path fill-rule="evenodd" clip-rule="evenodd" d="M30.4142 51.8135C30.4142 41.998 38.3714 34.0416 48.1869 34.0416C58.0023 34.0416 65.9591 41.998 65.9591 51.8135C65.9591 61.6294 58.0023 69.5862 48.1869 69.5862C38.3714 69.5862 30.4142 61.6294 30.4142 51.8135Z" fill="black"></path>
      <path fill-rule="evenodd" clip-rule="evenodd" d="M32.78 0.0882568C34.5047 34.2658 22.223 60.0107 0.0915833 69.8066V0.0882568H32.78Z" fill="black"></path>
      <path fill-rule="evenodd" clip-rule="evenodd" d="M0.0915833 87.7038V80.0599H4.92199V81.4717H1.5799V83.3585H4.55531V84.7276H1.59048V87.7038H0.0915833Z" fill="black"></path>
      <path fill-rule="evenodd" clip-rule="evenodd" d="M8.58804 83.8225C8.42647 83.7899 8.28606 83.7789 8.15664 83.7789C7.42367 83.7789 6.78757 84.1346 6.78757 85.2778V87.7038H5.35379V82.3993H6.74443V83.1859C7.06798 82.4855 7.80094 82.3557 8.25391 82.3557C8.37234 82.3557 8.48019 82.3671 8.58804 82.3777V83.8225Z" fill="black"></path>
      <path fill-rule="evenodd" clip-rule="evenodd" d="M10.572 84.6523L11.8768 84.4582C12.1788 84.415 12.2756 84.2645 12.2756 84.0813C12.2756 83.7041 11.9847 83.3911 11.3807 83.3911C10.7556 83.3911 10.4105 83.7903 10.3677 84.2535L9.09553 83.984C9.1814 83.1538 9.94652 82.2373 11.3697 82.2373C13.0522 82.2373 13.6769 83.186 13.6769 84.2535V86.863C13.6769 87.1426 13.7094 87.5207 13.7424 87.7034H12.427C12.3941 87.5634 12.3725 87.272 12.3725 87.0677C12.1035 87.4881 11.5968 87.8544 10.8093 87.8544C9.67751 87.8544 8.98727 87.0889 8.98727 86.2586C8.98727 85.31 9.68849 84.7817 10.572 84.6523ZM12.2756 85.5582V85.321L11.0791 85.5045C10.7124 85.5582 10.4211 85.7629 10.4211 86.1724C10.4211 86.4853 10.6477 86.7869 11.1117 86.7869C11.7152 86.7869 12.2756 86.4959 12.2756 85.5582Z" fill="black"></path>
      <path fill-rule="evenodd" clip-rule="evenodd" d="M16.2331 87.7037H14.7993V82.3992H16.1904V83.0565C16.5135 82.5066 17.1496 82.2588 17.721 82.2588C19.0364 82.2588 19.6403 83.1973 19.6403 84.3612V87.7037H18.2061V84.6091C18.2061 84.0161 17.9151 83.553 17.2253 83.553C16.5994 83.553 16.2331 84.0377 16.2331 84.6526V87.7037Z" fill="black"></path>
      <path fill-rule="evenodd" clip-rule="evenodd" d="M23.7914 84.6307L25.9586 87.7038H24.2013L22.7996 85.677L22.2067 86.3022V87.7038H20.7729V79.8976H22.2067V84.3719L24.0393 82.3993H25.9154L23.7914 84.6307Z" fill="black"></path>
      <path fill-rule="evenodd" clip-rule="evenodd" d="M33.4738 85.9571H30.369L29.7329 87.7038H28.1587L31.0914 80.0596H32.8166L35.7273 87.7038H34.1099L33.4738 85.9571ZM30.8647 84.5986H32.9781L31.9212 81.709L30.8647 84.5986Z" fill="black"></path>
      <path fill-rule="evenodd" clip-rule="evenodd" d="M37.6905 87.7037H36.2567V82.3992H37.6474V83.0565C37.9705 82.5066 38.6066 82.2588 39.1784 82.2588C40.4938 82.2588 41.0973 83.1973 41.0973 84.3612V87.7037H39.6635V84.6091C39.6635 84.0161 39.3721 83.553 38.6823 83.553C38.0568 83.553 37.6905 84.0377 37.6905 84.6526V87.7037Z" fill="black"></path>
      <path fill-rule="evenodd" clip-rule="evenodd" d="M47.2866 86.7441C47.2866 87.0998 47.3082 87.4881 47.3298 87.7038H45.9603C45.9387 87.5959 45.9066 87.3371 45.9066 87.0892C45.6693 87.5092 45.1305 87.8328 44.4187 87.8328C42.9096 87.8328 41.8311 86.6469 41.8311 85.0405C41.8311 83.4883 42.877 82.2694 44.3755 82.2694C45.292 82.2694 45.7234 82.6471 45.874 82.9275V79.8979H47.2866V86.7441ZM44.5912 86.55C45.3246 86.55 45.896 85.9896 45.896 85.0299C45.896 84.0813 45.3246 83.5526 44.5912 83.5526C43.8583 83.5526 43.2759 84.0918 43.2759 85.0405C43.2759 85.9896 43.8367 86.55 44.5912 86.55Z" fill="black"></path>
      <path fill-rule="evenodd" clip-rule="evenodd" d="M54.4356 79.8976C56.5164 79.8976 58.3706 81.418 58.3706 83.8872C58.3706 86.3453 56.5164 87.865 54.4356 87.865C52.3657 87.865 50.5111 86.3453 50.5111 83.8872C50.5111 81.418 52.3657 79.8976 54.4356 79.8976ZM54.4356 86.4206C55.6215 86.4206 56.829 85.6014 56.829 83.8762C56.829 82.151 55.6215 81.3318 54.4356 81.3318C53.2606 81.3318 52.0531 82.151 52.0531 83.8762C52.0531 85.6014 53.2606 86.4206 54.4356 86.4206Z" fill="black"></path>
      <path fill-rule="evenodd" clip-rule="evenodd" d="M60.4955 84.6523L61.7998 84.4582C62.1022 84.415 62.1991 84.2645 62.1991 84.0813C62.1991 83.7041 61.9081 83.3911 61.3045 83.3911C60.679 83.3911 60.3339 83.7903 60.2908 84.2535L59.0186 83.984C59.1048 83.1538 59.87 82.2373 61.2931 82.2373C62.9756 82.2373 63.6003 83.186 63.6003 84.2535V86.863C63.6003 87.1426 63.6329 87.5207 63.665 87.7034H62.3505C62.3175 87.5634 62.2963 87.272 62.2963 87.0677C62.0269 87.4881 61.5198 87.8544 60.7327 87.8544C59.6009 87.8544 58.9107 87.0889 58.9107 86.2586C58.9107 85.31 59.6119 84.7817 60.4955 84.6523ZM62.1991 85.5582V85.321L61.0022 85.5045C60.6359 85.5582 60.3445 85.7629 60.3445 86.1724C60.3445 86.4853 60.5712 86.7869 61.0351 86.7869C61.6383 86.7869 62.1991 86.4959 62.1991 85.5582Z" fill="black"></path>
      <path fill-rule="evenodd" clip-rule="evenodd" d="M67.7413 84.6307L69.9084 87.7038H68.1507L66.7491 85.677L66.1561 86.3022V87.7038H64.7223V79.8976H66.1561V84.3719L67.9891 82.3993H69.8653L67.7413 84.6307Z" fill="black"></path>
    </g>
    <defs>
    <clipPath id="clip0">
    <rect width="70" height="87.907" fill="white"></rect>
    </clipPath>
    </defs>
  </svg>