<svg xmlns="http://www.w3.org/2000/svg" width="23" height="23" viewBox="0 0 23 23" fill="none"><g clip-path="url(#clip0_2406_20485)"><path fill-rule="evenodd" clip-rule="evenodd" d="M0.0208 8.73C-0.0492 9.1 0.0608 9.49 0.3008 9.78L10.8608 22.31C11.3108 22.85 12.1208 22.92 12.6608 22.46L21.7708 14.78C22.3108 14.33 22.3808 13.52 21.9208 12.98L11.3608 0.45C11.1108 0.16 10.7508 0 10.3808 0L2.3008 0.03C1.8808 0.03 1.5208 0.33 1.4508 0.75L0.0208 8.73ZM4.8308 3.93C5.2208 3.58 5.8508 3.61 6.2108 4.05C6.5308 4.44 6.4908 5.07 6.0908 5.43C5.6608 5.75 5.0708 5.71 4.7108 5.31C4.3608 4.88 4.3908 4.29 4.8308 3.93Z" fill="black"></path></g><defs><clipPath id="clip0_2406_20485"><rect width="22.21" height="22.77" fill="white"></rect></clipPath></defs></svg>